<svg width="2808" height="2569" fill="none" xmlns="http://www.w3.org/2000/svg"><path fill-rule="evenodd" clip-rule="evenodd" d="M679 0H0v2569h2808v-547h-533.06c-18.89.66-37.88 1-56.94 1-850.52 0-1540-667.32-1540-1490.5 0-18.151.335-36.226 1-54.22V0z" fill="#203045"/><path fill-rule="evenodd" clip-rule="evenodd" d="M940.727 1364.89c-33.905 14.49-66.116 34.54-95.302 60.23-147.578 129.92-161.897 354.87-31.983 502.45 129.913 147.57 354.868 161.89 502.438 31.98 48.85-43 83.1-96.41 102.35-153.99a1551.23 1551.23 0 01-137.55-91.41c-5.23 48.01-27.73 94.3-66.84 128.73-83.11 73.16-209.81 65.1-282.975-18.02-73.167-83.11-65.103-209.81 18.014-282.97 27.834-24.51 60.551-39.9 94.521-46.41a1517.215 1517.215 0 01-102.673-130.59z" fill="#F58EC8"/></svg>