<svg width="2808" height="2569" viewBox="0 0 2808 2569" fill="none" xmlns="http://www.w3.org/2000/svg">
<path fill-rule="evenodd" clip-rule="evenodd" d="M679 0H0V2569H2808V2022H2274.94C2256.05 2022.66 2237.06 2023 2218 2023C1367.48 2023 678 1355.68 678 532.5C678 514.349 678.335 496.274 679 478.28V0Z" fill="#203045"/>
<path fill-rule="evenodd" clip-rule="evenodd" d="M940.727 1364.89C906.822 1379.38 874.611 1399.43 845.425 1425.12C697.847 1555.04 683.528 1779.99 813.442 1927.57C943.355 2075.14 1168.31 2089.46 1315.88 1959.55C1364.73 1916.55 1398.98 1863.14 1418.23 1805.56C1370.58 1777.43 1324.67 1746.89 1280.68 1714.15C1275.45 1762.16 1252.95 1808.45 1213.84 1842.88C1130.73 1916.04 1004.03 1907.98 930.865 1824.86C857.698 1741.75 865.762 1615.05 948.879 1541.89C976.713 1517.38 1009.43 1501.99 1043.4 1495.48C1006.77 1453.8 972.493 1410.2 940.727 1364.89Z" fill="#F58EC8"/>
</svg>
